<?xml version="1.0" encoding="UTF-8" standalone="no"?>
<!-- Created with Inkscape (http://www.inkscape.org/) -->

<svg
   id="svg5"
   version="1.1"
   viewBox="0 0 207.03246 181.35364"
   height="181.35364mm"
   width="207.03246mm"
   xmlns="http://www.w3.org/2000/svg"
   xmlns:svg="http://www.w3.org/2000/svg">
  <defs
     id="defs2">
    <clipPath
       clipPathUnits="userSpaceOnUse"
       id="clipPath9106">
      <rect
         style="fill:#999999;fill-opacity:1;stroke:#000000;stroke-width:0.458721"
         id="rect9108"
         width="207.03246"
         height="137.90314"
         x="1.823678"
         y="57.419739" />
    </clipPath>
    <clipPath
       clipPathUnits="userSpaceOnUse"
       id="clipPath9110">
      <rect
         style="fill:#999999;fill-opacity:1;stroke:#000000;stroke-width:0.458721"
         id="rect9112"
         width="207.03246"
         height="137.90314"
         x="1.823678"
         y="57.419739" />
    </clipPath>
    <clipPath
       clipPathUnits="userSpaceOnUse"
       id="clipPath9114">
      <rect
         style="fill:#999999;fill-opacity:1;stroke:#000000;stroke-width:0.458721"
         id="rect9116"
         width="207.03246"
         height="137.90314"
         x="1.823678"
         y="57.419739" />
    </clipPath>
    <clipPath
       clipPathUnits="userSpaceOnUse"
       id="clipPath9118">
      <rect
         style="fill:#999999;fill-opacity:1;stroke:#000000;stroke-width:0.458721"
         id="rect9120"
         width="207.03246"
         height="137.90314"
         x="1.823678"
         y="57.419739" />
    </clipPath>
    <clipPath
       clipPathUnits="userSpaceOnUse"
       id="clipPath9122">
      <rect
         style="fill:#999999;fill-opacity:1;stroke:#000000;stroke-width:0.458721"
         id="rect9124"
         width="207.03246"
         height="137.90314"
         x="1.823678"
         y="57.419739" />
    </clipPath>
    <filter
       style="color-interpolation-filters:sRGB"
       id="filter19882"
       x="-0.060504325"
       y="-0.17613106"
       width="1.151157"
       height="1.4429515">
      <feGaussianBlur
         result="result0"
         in="SourceAlpha"
         stdDeviation="4"
         id="feGaussianBlur19876" />
      <feOffset
         dx="5"
         dy="5"
         result="result4"
         id="feOffset19878" />
      <feComposite
         in="SourceGraphic"
         in2="result4"
         operator="xor"
         result="result3"
         id="feComposite19880" />
    </filter>
  </defs>
  <g
     id="layer1"
     transform="translate(-1.823678,-13.969247)">
    <rect
       style="fill:#999999;fill-opacity:1;stroke:#000000;stroke-width:0;stroke-miterlimit:4;stroke-dasharray:none"
       id="rect846"
       width="207.03246"
       height="137.90314"
       x="1.8236781"
       y="57.419739"
       clip-path="url(#clipPath9122)"
       transform="matrix(1,0,0,1.3150798,0,-61.542292)" />
    <path
       style="fill:#0e0e0e;fill-opacity:0.4;stroke:#000000;stroke-width:0.264583px;stroke-linecap:butt;stroke-linejoin:miter;stroke-opacity:1"
       d="m -13.899,60.1858 3.6576,1.6299 3.65766,0.1931 3.65763,1.5997 3.657638,0.3916 3.657632,1.5146 3.65764,1.8997 3.6576,0.8194 3.6577,0.6338 2.0117,0.9068 2.0117,0.3582 2.0117,0.1565 2.0117,0.5335 2.0117,0.2391 2.0117,0.374 2.0117,-0.3827 2.0117,1.49 1.2801,-1.3984 1.2802,-0.4517 1.2802,-0.0125 1.2802,-0.5365 1.2801,-1.0679 1.2802,0.3296 1.2802,-0.2464 1.2801,-1.3079 2.4232,-0.1273 2.4232,1.7105 2.4232,0.6269 2.4232,0.4959 2.4232,1.0092 2.4231,1.9891 2.4232,1.4624 2.4232,0.3277 1.9203,-0.063 1.9202,-0.5857 1.9203,-1.7426 1.9202,-0.3901 1.9203,-0.4788 1.9203,-0.2252 1.9202,-0.4145 1.9203,-1.2174 0.8229,1.4712 0.823,-0.2243 0.823,0.9941 0.823,-0.5804 0.8229,1.2502 0.823,-0.4183 0.823,0.3724 0.8229,0.3396 3.1547,0.1445 3.1547,-1.5858 3.1548,-0.1957 3.1547,0.1318 3.1547,-1.3847 3.1551,-1.027 3.154,-0.6605 3.155,-1.5151 1.6,2.1771 1.6,1.1409 1.601,1.8996 1.6,1.0823 1.6,0.1892 1.6,1.6054 1.601,0.9329 1.6,2.6168 1.737,-0.7315 1.737,0.7106 1.738,-0.9692 1.737,0.7454 1.738,1.1137 1.737,0.1398 1.737,-1.4209 1.738,1.0872 0.64,-0.1715 0.64,1.1442 0.64,0.3694 0.64,1.2281 0.64,1.9502 0.64,0.5738 0.64,-0.5961 0.64,1.1004 2.058,-0.2272 2.057,0.8243 2.058,-0.7676 2.057,-0.364 2.058,0.03 2.057,-0.0349 2.057,1.1316 2.058,0.2136 1.691,-0.3051 1.692,-1.5416 1.692,0.1139 1.691,-0.1183 1.692,-0.9158 1.692,-1.2863 1.691,-0.7243 1.692,1.22 2.103,-0.471 2.103,2.0483 2.103,0.5257 2.104,0.2671 2.103,2.1485 2.103,1.4104 2.103,0.8512 2.103,0.5621 1.829,-0.3312 1.829,-0.2873 1.829,-0.0901 1.828,-1.0077 1.829,-0.51 1.829,-0.4643 1.829,-1.2421 1.829,-0.1447 3.063,1.324 3.063,2.401 3.064,1.0369 3.063,1.2118 3.063,1.3501 3.063,-0.4469 3.064,2.7223 3.063,0.5836 15.362,127.9648 -328.4557,5.273 z"
       id="path2048"
       clip-path="url(#clipPath9118)" />
    <path
       style="fill:#000000;fill-opacity:0.3;stroke:#000000;stroke-width:0.264583px;stroke-linecap:butt;stroke-linejoin:miter;stroke-opacity:1"
       d="m -8.0468,91.2128 2.42318,1.6969 2.42319,0.5621 2.423181,0.8154 2.423189,1.1439 2.42318,0.5547 2.42318,1.4522 2.42319,1.6421 2.42321,0.155 1.8745,-1.2474 1.8745,-0.3515 1.8746,-0.4915 1.8745,-1.8364 1.8746,-0.0211 1.8745,-1.896 1.8745,-0.712 1.8746,0.112 1.0973,-0.9352 1.0973,0.4306 1.0972,2.3675 1.0973,-0.4691 1.0973,0.7652 1.0973,1.2187 1.0973,-0.3003 1.0973,1.45 2.1946,-0.3655 2.1946,-0.1328 2.1945,-1.1361 2.1946,0.5853 2.1946,0.2708 2.1946,-0.8839 2.1946,1.2015 2.1945,0.5485 0.9602,-0.6219 0.9601,1.0191 0.9601,-0.4259 0.9602,0.5819 0.9601,2.1784 0.9601,0.098 0.9602,1.467 0.9601,-0.437 1.2802,0.991 1.2801,-1.314 1.2802,1.702 1.2802,0.077 1.2801,-0.011 1.2802,-0.532 1.2802,1.644 1.2802,-1.55 1.463,-0.224 1.4631,-0.555 1.463,-0.492 1.4631,-1.7162 1.463,0.7182 1.4631,-2.2951 1.463,-0.0022 1.4631,-1.0911 0.4572,0.7867 0.4572,-0.1919 0.4572,0.4445 0.4572,1.8206 0.4572,0.1061 0.4572,-0.8612 0.4572,0.4383 0.4572,1.4753 0.9602,-0.383 0.9601,-2.0911 0.9601,-0.2856 0.9602,-1.1772 0.9601,0.9218 0.9601,-1.7977 0.9601,-0.8259 0.9602,-0.1845 2.0117,0.6542 2.0117,1.7702 2.0117,0.2875 2.0114,0.9672 2.012,0.4916 2.012,1.5505 2.011,-0.107 2.012,2.485 2.378,-0.179 2.377,-0.136 2.377,-1.3 2.378,0.42 2.377,0.118 2.378,1.185 2.377,-0.313 2.378,0.223 1.326,0.413 1.326,0.12 1.325,0.607 1.326,0.823 1.326,2.023 1.326,0.814 1.326,0.202 1.326,0.874 0.914,0.983 0.915,-0.937 0.914,-0.013 0.915,-0.645 0.914,-1.263 0.914,-0.301 0.915,0.159 0.914,0.208 1.006,-1.041 1.006,-0.31 1.006,-2.551 1.006,0.648 1.005,-1.137 1.006,-2.073 1.006,-0.7117 1.006,-0.6287 1.143,-0.5224 1.143,-0.1733 1.143,-0.4031 1.143,0.4914 1.143,0.1149 1.143,-1.389 1.143,-0.0587 1.143,-1.6493 1.189,0.4298 1.189,0.7341 1.188,-0.2184 1.189,1.0599 1.189,-0.2176 1.188,0.6581 1.189,-0.954 1.189,0.5681 1.189,0.6708 1.188,1.2987 1.189,2.1594 1.189,1.124 1.189,1.614 1.188,0.656 1.189,0.963 1.189,1.779 1.234,-0.096 1.235,-0.847 1.234,-0.797 1.235,-0.49 1.234,0.092 1.234,-0.196 1.235,-1.064 1.234,-0.767 1.372,1.424 1.372,-0.281 1.371,0.89 1.372,0.643 1.371,1.058 1.372,-0.966 1.372,1.968 1.371,-1.021 114.85,118.716 -405.6317,2.519 z"
       id="path4410"
       clip-path="url(#clipPath9114)" />
    <path
       style="fill:#000000;fill-opacity:0.2;stroke:#000000;stroke-width:0.264583px;stroke-linecap:butt;stroke-linejoin:miter;stroke-opacity:1"
       d="m -50.841147,140.881 6.0351,-0.126 6.0351,-0.993 6.0351,-1.19 6.0351,1.313 6.0351,-0.242 6.0351,-1.337 6.0351002,-0.017 6.0351,1.309 2.88039,-1.45 2.88039,0.622 2.880386,0.844 2.880384,-0.101 2.8803898,0.974 2.88039,-0.57 2.88037,1.95 2.8804,0.635 1.6002,-2.259 1.6002,-0.203 1.6003,-0.308 1.6002,-1.319 1.6002,1.072 1.6002,-2.231 1.6002,-0.143 1.6002,-0.652 0.823,-0.551 0.823,-1.25 0.8229,-0.522 0.823,1.009 0.823,-1.827 0.8229,0.47 0.823,-1.12 0.823,-0.556 1.3259,0.206 1.3259,1.68 1.3259,-0.153 1.3258,0.374 1.3259,-0.073 1.3259,0.057 1.3259,0.528 1.3259,1.01 1.7374,-0.661 1.7374,-0.393 1.7373,-0.485 1.7374,-0.031 1.7374,-0.803 1.7374,-0.988 1.7374,0.681 1.7373,-0.424 1.143,-0.93 1.1431,2.008 1.143,0.263 1.143,-0.144 1.143,1.189 1.143,0.756 1.143,0.176 1.143,0.35 2.0574,-0.797 2.0575,-0.496 2.0574,-1.396 2.0574,-0.963 2.0574,-0.231 2.0574,-0.805 2.0575,-1.58 2.0574,-0.628 0.7772,0.171 0.7773,-0.65 0.7772,-0.859 0.7773,-0.697 0.7772,0.41 0.7773,-1.182 0.7772,-0.166 0.7773,-1.665 0.5029,0.631 0.5029,1.545 0.5029,0.391 0.503,0.337 0.5029,0.849 0.5029,-0.135 0.5029,1.727 0.502997,1.343 0.9601,-1.56 0.9601,-1.081 0.9601,-0.85 0.9602,-0.795 0.9601,0.041 0.9606,-0.519 0.96,-1.269 0.96,-1.637 2.423,2.646 2.423,0.946 2.423,0.913 2.424,0.036 2.423,1.174 2.423,0.418 2.423,1.145 2.423,0.986 1.006,0.823 1.006,-0.41 1.006,-0.28 1.006,-1.037 1.006,0.845 1.005,-0.963 1.006,-1.114 1.006,0.176 1.692,0.215 1.691,0.999 1.692,-0.07 1.692,1.905 1.691,0.53 1.692,1.282 1.692,0.162 1.691,0.314 1.235,-1.503 1.234,0.262 1.235,0.02 1.234,0.212 1.235,-0.883 1.234,-0.586 1.234,-1.412 1.235,-0.665 0.731,0.788 0.732,-2.383 0.732,0.869 0.731,-1.295 0.732,-0.913 0.731,-0.55 0.732,-1.367 0.731,-0.799 1.097,2.1 1.098,0.819 1.097,0.765 1.097,2.382 1.098,1.69 1.097,0.769 1.097,0.761 1.097,1.291 1.372,1.651 1.372,-0.807 1.371,1.875 1.372,0.845 1.372,-0.057 1.371,0.571 1.372,0.517 1.371,0.95 0.458,0.257 0.457,-1.188 0.457,-0.793 0.457,-0.979 0.457,-0.073 0.458,-1.129 0.457,0.158 0.457,0.293 1.143,-1.299 1.143,1.052 1.143,0.349 1.143,-1.26 1.143,1.688 1.143,-1.699 1.143,1.479 1.143,-0.214 1.006,-0.69 1.006,-0.051 1.006,-0.949 1.006,0.078 1.005,0.358 1.006,-0.99 1.006,-1.565 1.006,0.808 6.629,-0.355 6.63,-1.137 6.629,0.92 6.63,-0.156 6.629,-0.091 6.63,-1.572 6.629,1.046 6.63,-1.064 5.12,138.641 -318.579697,1.916 z"
       id="path5667"
       clip-path="url(#clipPath9110)" />
    <path
       style="fill:#000000;fill-opacity:0.57377;stroke:#000000;stroke-width:0.264583px;stroke-linecap:butt;stroke-linejoin:miter;stroke-opacity:1"
       d="m -6.5837458,176.43682 2.92611,-1.059 2.92610999,0.509 2.92610701,-0.09 2.926113,-0.592 2.9261,-1.842 2.9261098,-0.379 2.92615,0.06 2.9261,-1.737 1.1887,0.029 1.1887,-0.073 1.1888,-2.099 1.1887,0.232 1.1887,-1.133 1.1888,-1.099 1.1887,0.598 1.1887,-1.946 1.3716,2.027 1.3716,0.804 1.3717,0.515 1.3716,0.941 1.3716,0.31 1.3716,0.334 1.3716,0.914 1.3716,0.637 1.3716,-0.647 1.3717,-1.592 1.3716,0.201 1.3716,-0.122 1.3716,-0.483 1.3716,-1.907 1.3716,-0.919 1.3716,-0.831 1.0059,-0.065 1.0058,-1.031 1.0059,-0.672 1.0058,-0.812 1.0059,-0.728 1.0058,-0.35 1.0059,0.555 1.0058,-1.341 0.823,-0.787 0.823,0.662 0.8229,-1.763 0.823,-0.983 0.823,0.194 0.8229,-0.637 0.823,-1.357 0.823,0.296 0.8687,1.451 0.8687,-0.035 0.8686,-0.62 0.8687,0.633 0.8687,2.041 0.8687,-0.584 0.8687,1.214 0.8687,-0.721 0.4572,0.778 0.4572,0.413 0.4572,1.752 0.4572,-0.071 0.4572,1.104 0.4572,-0.388 0.4572,1.622 0.4572,1.185 0.7773,-0.969 0.7772,1.293 0.7773,0.782 0.7772,1.003 0.7773,-0.023 0.7772,1.439 0.7773,0.472 0.7772,0.329 1.4173,-0.63 1.4174,-1.169 1.4173,1.296 1.4173,-2.1 1.4174,0.219 1.4173,0.116 1.4173,-1.23 1.4174,1.326 1.5087,-1.69 1.5088,-0.637 1.5088,0.204 1.5088,-1.933 1.5087,0.489 1.508796,-2.541 1.5083,0.526 1.509,-0.908 1.463,-0.621 1.463,-1.035 1.463,-1.18 1.463,-2.151 1.464,-0.93 1.463,-0.315 1.463,-1.674 1.463,-0.93 0.731,2.344 0.732,0.533 0.731,0.516 0.732,-1.022 0.731,1.846 0.732,-0.519 0.731,0.082 0.732,1.991 1.463,0.191 1.463,1.229 1.463,1.071 1.463,-0.939 1.463,1.174 1.463,0.095 1.463,0.925 1.463,1.229 1.281,-0.217 1.28,-0.925 1.28,-0.664 1.28,-0.435 1.28,-0.025 1.28,0.298 1.281,-1.65 1.28,0.36 1.92,0.339 1.92,1.372 1.921,-0.274 1.92,1.015 1.92,-1.127 1.92,2.128 1.921,0.315 1.92,-1.032 1.189,1.639 1.188,-0.539 1.189,1.121 1.189,1.833 1.188,-1.184 1.189,1.824 1.189,-0.566 1.189,1.24 1.28,-0.781 1.28,0.329 1.28,0.197 1.28,-1.839 1.281,-0.209 1.28,-0.925 1.28,0.412 1.28,0.291 1.737,-1.026 1.738,1.058 1.737,1.109 1.738,0.626 1.737,1.39 1.737,0.995 1.738,0.631 1.737,0.865 1.006,-1.53 1.006,0.535 1.006,-0.446 1.005,-0.495 1.006,-0.52 1.006,-0.758 1.006,0.642 1.006,-0.499 4.663,2.63 4.664,0.084 4.663,2.549 4.664,1.624 4.663,2.606 4.664,0.913 4.663,1.403 4.664,2.365 -13.534,25.207 c 0,0 -238.843096,6.388 -237.380096,4.193 1.4631,-2.194 7.6810702,-34.153 7.6810702,-34.153 l -0.04572,-0.697 -0.04572,-0.201 -0.04572,-0.933 -0.04572,0.228 -0.04572,0.92 -0.04572,-1.309 -0.04573,-0.099 z"
       id="path6962"
       clip-path="url(#clipPath9106)" />
    <g
       aria-label="Sierra"
       transform="translate(35.478049,-11.334438)"
       id="text11262"
       style="font-size:50.8px;line-height:1.25;fill:#663399;stroke:#000000;stroke-width:0.5;filter:url(#filter19882)">
      <path
         d="m -4.3304425,62.533841 -7.4348515,-2.236204 3.1864115,-10.594071 7.434852,2.236204 q 0.029912,4.723229 3.7117081,5.830614 2.6603943,0.800175 3.3033923,-1.337642 0.3357878,-1.116415 -0.3691225,-2.131407 -0.7547375,-1.107685 -3.5327975,-3.497393 -3.4879781,-3.043573 -4.9881721,-4.945324 -1.4171486,-1.747261 -2.0330872,-4.263732 -0.6230831,-2.492718 0.1485144,-5.058098 1.3860178,-4.608183 5.15770333,-6.29712 3.74793207,-1.696081 8.09482627,-0.388652 4.3468944,1.307429 6.6205714,4.685137 l 0.61442,-2.042803 7.482359,2.250493 -2.82919,9.406394 -7.387345,-2.221915 q -0.182266,-4.302809 -3.6265264,-5.33875 -2.4228591,-0.728731 -3.0444238,1.337825 -0.3000657,0.997648 0.2387536,1.70366 0.5079213,0.722621 3.6063786,3.597232 4.14074,3.887465 5.443946,5.496846 0.667051,0.796386 1.222112,2.051233 0.585959,1.238238 0.841689,2.454859 0.60629,2.720788 -0.208174,5.428689 -1.250273,4.156866 -5.202706,6.102267 -3.9667216,1.992909 -8.6699187,0.578313 -4.37064781,-1.314573 -7.1311805,-4.968226 z"
         style="font-size:50.8px;font-family:'Rockwell Extra Bold';-inkscape-font-specification:'Rockwell Extra Bold, '"
         id="path20299" />
      <path
         d="m 34.7058,71.85501 -16.991687,-1.293111 0.574088,-7.543616 2.473317,0.188225 0.677613,-8.90394 -2.473317,-0.188226 0.574088,-7.543616 14.914101,1.135001 -1.251701,16.447557 2.077586,0.158109 z M 21.490165,39.903008 q 0.148698,-1.95392 2.242433,-2.988649 2.069002,-1.036612 4.987516,-0.814505 2.992713,0.227753 4.728855,1.603698 1.709526,1.398797 1.572121,3.204318 -0.148698,1.95392 -2.115003,2.948595 -1.99292,1.017525 -4.886701,0.797301 -2.943247,-0.223989 -4.81623,-1.436214 -1.874865,-1.187491 -1.712991,-3.314544 z"
         style="font-size:50.8px;font-family:'Rockwell Extra Bold';-inkscape-font-specification:'Rockwell Extra Bold, '"
         id="path20301" />
      <path
         d="m 48.934652,56.407703 7.001639,0.503608 q 0.102867,-0.738664 0.109985,-0.837627 0.140584,-1.954521 -0.756512,-3.312222 -0.898874,-1.332961 -2.531765,-1.45041 -1.682373,-0.121008 -2.672694,1.200412 -0.992101,1.34616 -1.139803,3.399644 -0.01957,0.272149 -0.01085,0.496595 z m 7.465045,6.853607 10.176664,2.000286 q -0.808411,1.558323 -2.137985,2.755867 -1.327795,1.172802 -3.176753,1.984825 -3.726216,1.671748 -8.723851,1.312282 -8.387122,-0.603262 -12.366879,-4.396011 -3.981537,-3.768009 -3.577583,-9.384164 0.395056,-5.492451 4.839618,-8.853344 4.39508,-3.364452 11.47094,-2.855505 6.803712,0.489372 10.834731,4.260939 3.958576,3.741488 3.725337,10.787442 l -18.90195,-1.359564 q -0.345747,5.844161 3.934406,6.15202 2.57304,0.185072 3.903305,-2.405073 z"
         style="font-size:50.8px;font-family:'Rockwell Extra Bold';-inkscape-font-specification:'Rockwell Extra Bold, '"
         id="path20303" />
      <path
         d="m 85.949848,71.966735 -19.377832,0.86806 -0.338566,-7.55785 3.270938,-0.146527 -0.399618,-8.920741 -3.270938,0.146527 -0.338566,-7.55785 14.917461,-0.668251 0.269743,6.0215 q 0.7415,-2.292707 2.427605,-4.00699 1.612875,-1.686172 3.325263,-2.259473 1.639158,-0.54519 4.860537,-0.689497 l 0.473991,10.58099 q -0.422367,-0.0059 -1.041863,0.02184 -3.816095,0.170948 -5.640171,1.022376 -1.897305,0.879539 -2.533418,2.199172 -0.658673,1.370303 -0.585768,3.552038 l 3.642636,-0.163177 z"
         style="font-size:50.8px;font-family:'Rockwell Extra Bold';-inkscape-font-specification:'Rockwell Extra Bold, '"
         id="path20305" />
      <path
         d="m 113.46313,69.355301 -19.295389,-1.985439 0.774372,-7.525694 3.257022,0.335138 0.914012,-8.882786 -3.257021,-0.335138 0.774372,-7.525695 14.853992,1.528433 -0.61696,5.995881 q 1.06997,-2.159048 2.98943,-3.607295 1.84289,-1.43119 3.62087,-1.746953 1.70143,-0.298706 4.9091,0.03135 l -1.08412,10.535972 q -0.41693,-0.06784 -1.03379,-0.131309 -3.79986,-0.390995 -5.72914,0.183493 -2.00585,0.591545 -2.82876,1.803524 -0.85266,1.258789 -1.10076,3.427598 l 3.62714,0.373222 z"
         style="font-size:50.8px;font-family:'Rockwell Extra Bold';-inkscape-font-specification:'Rockwell Extra Bold, '"
         id="path20307" />
      <path
         d="m 136.44294,74.158839 1.4818,-4.132812 q -1.26301,-1.40148 -3.0142,-2.029363 -1.54105,-0.552537 -2.75306,-0.03846 -1.22037,0.537422 -1.69756,1.868327 -0.49394,1.377604 0.13028,2.576396 0.63919,1.230513 1.8767,1.674217 2.19482,0.786946 3.97604,0.0817 z m -5.02699,-13.686655 -8.86472,-4.232446 q 2.71486,-2.794773 6.58606,-2.935121 3.8245,-0.157092 10.33893,2.178632 2.40497,0.862293 4.23766,1.703851 1.8644,0.82658 3.24992,1.665913 2.89615,1.697176 3.95517,3.447129 1.05065,1.773302 1.1237,3.406898 0.0797,1.688667 -1.03379,4.794113 l -2.34409,6.537781 2.8953,1.038099 -2.55339,7.121512 -14.63996,-5.2491 0.55254,-1.541049 q -3.73863,0.873004 -8.82876,-0.952042 -4.78659,-1.716213 -6.46145,-4.688306 -1.69821,-2.980466 -0.66848,-5.85242 1.13856,-3.175493 4.87895,-4.126917 3.71705,-0.959795 8.52699,0.76479 4.38965,1.573893 6.5712,3.647271 l 0.24278,-0.677128 q 0.75346,-2.101429 0.7513,-3.050834 -0.009,-1.004475 -0.90349,-2.036749 -0.94979,-1.025668 -2.49084,-1.578205 -2.82525,-1.012984 -5.12153,0.614328 z"
         style="font-size:50.8px;font-family:'Rockwell Extra Bold';-inkscape-font-specification:'Rockwell Extra Bold, '"
         id="path20309" />
    </g>
  </g>
</svg>
